<?xml version="1.0" encoding="UTF-8"?>
<svg width="24px" height="24px" viewBox="0 0 24 24" version="1.1" xmlns="http://www.w3.org/2000/svg" xmlns:xlink="http://www.w3.org/1999/xlink">
    <!-- Generator: Sketch 43.2 (39069) - http://www.bohemiancoding.com/sketch -->
    <title>icons/blue/info</title>
    <desc>Created with Sketch.</desc>
    <defs></defs>
    <g id="Symbols" stroke="none" stroke-width="1" fill="none" fill-rule="evenodd">
        <g id="icons/blue/info" fill="#FFFFFF">
            <path d="M12.7371114,10.9935632 L12.7371114,15.5362486 C12.7371114,15.8511112 12.6597496,16.0886119 12.5127621,16.2502981 C12.3657747,16.4112107 12.1723702,16.491667 11.9402848,16.491667 C11.7081993,16.491667 11.522531,16.4088898 11.3832797,16.2441092 C11.2362923,16.0793285 11.1666667,15.843375 11.1666667,15.5362486 L11.1666667,11.0399803 C11.1666667,10.7289858 11.2362923,10.4953532 11.3832797,10.3375351 C11.522531,10.1804906 11.7081993,10.1015816 11.9402848,10.1015816 C12.1723702,10.1015816 12.3657747,10.1804906 12.5127621,10.3375351 C12.6597496,10.4953532 12.7371114,10.7135135 12.7371114,10.9935632 Z M11.9634933,9.37051247 C11.7391441,9.37051247 11.5534757,9.3032077 11.3987521,9.16859815 C11.2440285,9.03476222 11.1666667,8.84445217 11.1666667,8.59921524 C11.1666667,8.37641323 11.2440285,8.19306574 11.4064883,8.04917278 C11.5612119,7.90527982 11.7468802,7.83333333 11.9634933,7.83333333 C12.164634,7.83333333 12.3425662,7.89831725 12.4972898,8.02905871 C12.6597496,8.15980017 12.7371114,8.3493366 12.7371114,8.59921524 C12.7371114,8.84058408 12.6597496,9.03012051 12.505026,9.16550368 C12.3503023,9.30243408 12.1723702,9.37051247 11.9634933,9.37051247 L11.9634933,9.37051247 Z" id="Fill-1177"></path>
            <path d="M12.0031844,3.69833351 C9.78685914,3.69833351 7.69790893,4.5619361 6.1354421,6.12864876 C4.5644836,7.69705976 3.69833351,9.78261331 3.69833351,11.9997877 C3.69833351,14.2186604 4.5644836,16.3033648 6.1354421,17.8709267 C7.69790893,19.4384885 9.78685914,20.3012419 12.0031844,20.3012419 C14.2195096,20.3012419 16.3084598,19.4376393 17.8709267,17.8692283 C21.1147437,14.6322046 21.106252,9.36567243 17.8709267,6.12864876 C16.3084598,4.5619361 14.2195096,3.69833351 12.0031844,3.69833351 Z M12.0031844,21.9995754 C9.3283091,21.9995754 6.82326717,20.9601953 4.92962531,19.0724976 C3.04447511,17.1839507 2,14.6721155 2,11.9997877 C2,9.3283091 3.04447511,6.81647384 4.92962531,4.92792697 C6.82326717,3.04022928 9.3283091,2 12.0031844,2 C14.6780597,2 17.1831016,3.04022928 19.0767434,4.92792697 C22.9744189,8.82645154 22.9744189,15.1705764 19.0767434,19.0707993 C17.1831016,20.9593461 14.6780597,21.9995754 12.0031844,21.9995754 L12.0031844,21.9995754 Z" id="Fill-1178"></path>
        </g>
    </g>
</svg>